# xmcd
#
# Track frame offsets:
#	150
#	19638
#	32839
#	46374
#	61303
#	76693
#	99258
#	115502
#	133421
#	149290
#	172317
#	188182
#	205777
#	226350
#	243417
#
# Disc length: 3598 seconds
#
# Revision: 2
# Processed by: cddbd v1.5.2PL0 Copyright (c) Steve Scherf et al.
# Submitted via: audiograbber 1.83.01
#
DISCID=c80e0c0f
DTITLE=Delbert McClinton - Live From Austin Tx
DYEAR=1982
DGENRE=Blues
TTITLE0=Mess of Blues
TTITLE1=A Fool In Love
TTITLE2=Lipstick, Powder and Paint
TTITLE3=Plain Old Makin' Love
TTITLE4=Going Back To Louisiana
TTITLE5=Sneakin' Around
TTITLE6=Take Me To The River
TTITLE7=Let Love Come Between Us
TTITLE8=Heartbreak Radio
TTITLE9=The Jealous Kind
TTITLE10=Shaky Ground
TTITLE11=Givin' It Up For Your Love
TTITLE12=I've Got Dreams To Remember
TTITLE13=I Wanna Thank You Baby
TTITLE14=Turn On Your Love Light
EXTD=
EXTT0=
EXTT1=
EXTT2=
EXTT3=
EXTT4=
EXTT5=
EXTT6=
EXTT7=
EXTT8=
EXTT9=
EXTT10=
EXTT11=
EXTT12=
EXTT13=
EXTT14=
PLAYORDER=
